<svg width="199" height="54" viewBox="0 0 199 54" fill="none" xmlns="http://www.w3.org/2000/svg">
<path d="M51.8539 0.0645752L44.9675 5.60987L37 0.0701476L30.0468 5.55977L22.1506 0.0701476L0 15.4679V53.7272H18.0967L18.0961 41.7136C18.0961 39.4751 19.911 37.6603 22.1495 37.6603C24.388 37.6603 26.2028 39.4751 26.2028 41.7136V53.7272H29.5753H73.9984V15.4674L51.8539 0.0645752ZM39.9004 49.3287H34.0974H31.7743H30.6013V40.4805C30.6013 38.3973 29.6081 36.4249 27.9074 35.2225C21.0817 30.3981 13.6976 35.2097 13.6976 41.7136V49.3287H4.39905V17.5739L22.1506 5.71732L39.9004 17.5739V49.3287ZM54.7499 49.3287H44.2995V15.4679L33.883 8.22637L37 5.71732L54.7499 17.5739V49.3287ZM69.5993 49.3287H59.1489V15.4479L48.7319 8.22693L51.8495 5.71732L69.5993 17.5739V49.3287Z" fill="white"/>
<path fill-rule="evenodd" clip-rule="evenodd" d="M109.96 37.343H87.6887V32.8893H109.96V37.343Z" fill="white"/>
<path fill-rule="evenodd" clip-rule="evenodd" d="M198.185 37.343H175.914V32.8893H198.185V37.343Z" fill="white"/>
<path d="M194.846 18.8451V21.1001H198.483V23.1962H194.846V25.6417H198.959V27.8173H192.131V16.6696H198.959V18.8451H194.846Z" fill="white"/>
<path d="M190.178 16.6696V27.8173H187.463V21.1319L184.969 27.8173H182.778L180.269 21.116V27.8173H177.553V16.6696H180.761L183.89 24.3872L186.986 16.6696H190.178Z" fill="white"/>
<path d="M170.342 27.9285C169.294 27.9285 168.331 27.685 167.452 27.198C166.584 26.711 165.89 26.0334 165.372 25.1653C164.863 24.2867 164.609 23.3021 164.609 22.2117C164.609 21.1213 164.863 20.142 165.372 19.2739C165.89 18.4058 166.584 17.7283 167.452 17.2413C168.331 16.7543 169.294 16.5108 170.342 16.5108C171.39 16.5108 172.348 16.7543 173.216 17.2413C174.095 17.7283 174.783 18.4058 175.281 19.2739C175.789 20.142 176.043 21.1213 176.043 22.2117C176.043 23.3021 175.789 24.2867 175.281 25.1653C174.773 26.0334 174.084 26.711 173.216 27.198C172.348 27.685 171.39 27.9285 170.342 27.9285ZM170.342 25.4512C171.231 25.4512 171.941 25.1548 172.47 24.5619C173.01 23.9691 173.28 23.1857 173.28 22.2117C173.28 21.2271 173.01 20.4437 172.47 19.8615C171.941 19.2686 171.231 18.9722 170.342 18.9722C169.442 18.9722 168.722 19.2633 168.182 19.8456C167.653 20.4278 167.388 21.2165 167.388 22.2117C167.388 23.1962 167.653 23.9849 168.182 24.5778C168.722 25.1601 169.442 25.4512 170.342 25.4512Z" fill="white"/>
<path d="M163.11 16.6696V27.8173H160.394V23.228H156.17V27.8173H153.455V16.6696H156.17V21.0366H160.394V16.6696H163.11Z" fill="white"/>
<path d="M148.995 16.6696L145.137 24.1332V27.8173H142.421V24.1332L138.562 16.6696H141.643L143.803 21.3383L145.946 16.6696H148.995Z" fill="white"/>
<path d="M134.761 27.8173L132.443 23.6091H131.792V27.8173H129.076V16.6696H133.634C134.513 16.6696 135.259 16.8231 135.873 17.1301C136.498 17.4371 136.963 17.8606 137.27 18.4005C137.577 18.9298 137.731 19.5227 137.731 20.1791C137.731 20.9201 137.519 21.5818 137.096 22.164C136.683 22.7463 136.069 23.1592 135.254 23.4027L137.826 27.8173H134.761ZM131.792 21.6876H133.475C133.973 21.6876 134.343 21.5659 134.587 21.3224C134.841 21.0789 134.968 20.7349 134.968 20.2902C134.968 19.8668 134.841 19.5333 134.587 19.2898C134.343 19.0463 133.973 18.9245 133.475 18.9245H131.792V21.6876Z" fill="white"/>
<path d="M120.548 16.6696V23.3392C120.548 24.0061 120.712 24.5196 121.04 24.8795C121.368 25.2395 121.85 25.4194 122.485 25.4194C123.12 25.4194 123.607 25.2395 123.946 24.8795C124.285 24.5196 124.454 24.0061 124.454 23.3392V16.6696H127.17V23.3233C127.17 24.3184 126.958 25.1601 126.534 25.8482C126.111 26.5363 125.539 27.0551 124.819 27.4044C124.11 27.7538 123.316 27.9284 122.437 27.9284C121.559 27.9284 120.77 27.7591 120.071 27.4203C119.383 27.0709 118.838 26.5522 118.436 25.8641C118.033 25.1653 117.832 24.3184 117.832 23.3233V16.6696H120.548Z" fill="white"/>
<path d="M113.357 27.8173L111.086 24.4031L109.085 27.8173H106.004L109.577 22.1482L105.925 16.6696H109.085L111.324 20.0361L113.293 16.6696H116.374L112.833 22.2911L116.517 27.8173H113.357Z" fill="white"/>
<path d="M97.9994 16.6696V23.3392C97.9994 24.0061 98.1635 24.5196 98.4917 24.8795C98.8199 25.2395 99.3015 25.4194 99.9367 25.4194C100.572 25.4194 101.059 25.2395 101.398 24.8795C101.736 24.5196 101.906 24.0061 101.906 23.3392V16.6696H104.621V23.3233C104.621 24.3184 104.41 25.1601 103.986 25.8482C103.563 26.5363 102.991 27.0551 102.271 27.4044C101.562 27.7538 100.768 27.9284 99.8891 27.9284C99.0104 27.9284 98.2217 27.7591 97.523 27.4203C96.8349 27.0709 96.2897 26.5522 95.8874 25.8641C95.4851 25.1653 95.2839 24.3184 95.2839 23.3233V16.6696H97.9994Z" fill="white"/>
<path d="M90.4794 25.7211H94.0365V27.8173H87.7639V16.6696H90.4794V25.7211Z" fill="white"/>
<path d="M167.915 34.0345V36.2395H170.319V36.9493H167.915V39.2207H170.603V39.9305H167.054V33.3247H170.603V34.0345H167.915Z" fill="white"/>
<path d="M165.994 33.3341V34.0345H164.196V39.9305H163.335V34.0345H161.527V33.3341H165.994Z" fill="white"/>
<path d="M159.456 38.4636H156.579L156.049 39.9305H155.14L157.525 33.372H158.519L160.894 39.9305H159.986L159.456 38.4636ZM159.21 37.7633L158.017 34.432L156.825 37.7633H159.21Z" fill="white"/>
<path d="M154.497 33.3341V34.0345H152.699V39.9305H151.837V34.0345H150.03V33.3341H154.497Z" fill="white"/>
<path d="M146.974 39.9967C146.538 39.9967 146.147 39.921 145.8 39.7696C145.459 39.6119 145.191 39.3974 144.996 39.1261C144.8 38.8484 144.699 38.5298 144.693 38.1702H145.611C145.642 38.4794 145.769 38.7412 145.989 38.9557C146.217 39.1639 146.545 39.268 146.974 39.268C147.384 39.268 147.706 39.1671 147.939 38.9652C148.179 38.757 148.299 38.492 148.299 38.1702C148.299 37.9178 148.229 37.7128 148.09 37.555C147.952 37.3973 147.778 37.2774 147.57 37.1954C147.362 37.1134 147.081 37.0251 146.728 36.9304C146.292 36.8169 145.942 36.7033 145.677 36.5897C145.418 36.4762 145.194 36.2995 145.005 36.0597C144.822 35.8137 144.731 35.4856 144.731 35.0755C144.731 34.7159 144.822 34.3973 145.005 34.1196C145.188 33.842 145.444 33.6275 145.772 33.4761C146.106 33.3247 146.488 33.249 146.917 33.249C147.535 33.249 148.04 33.4035 148.431 33.7127C148.829 34.0218 149.053 34.432 149.103 34.943H148.157C148.125 34.6906 147.993 34.4698 147.759 34.2805C147.526 34.0849 147.217 33.9871 146.832 33.9871C146.472 33.9871 146.179 34.0818 145.952 34.2711C145.724 34.454 145.611 34.7127 145.611 35.0471C145.611 35.2869 145.677 35.4824 145.81 35.6339C145.948 35.7853 146.116 35.902 146.311 35.984C146.513 36.0597 146.794 36.1481 147.153 36.249C147.589 36.3689 147.939 36.4888 148.204 36.6087C148.469 36.7222 148.696 36.902 148.885 37.1481C149.075 37.3878 149.169 37.7159 149.169 38.1323C149.169 38.4541 149.084 38.757 148.914 39.0409C148.743 39.3248 148.491 39.5551 148.157 39.7317C147.822 39.9084 147.428 39.9967 146.974 39.9967Z" fill="white"/>
<path d="M140.891 34.0345V36.2395H143.295V36.9493H140.891V39.2207H143.579V39.9305H140.03V33.3247H143.579V34.0345H140.891Z" fill="white"/>
<path d="M134.283 39.2302H136.593V39.9305H133.422V33.3341H134.283V39.2302Z" fill="white"/>
<path d="M130.944 38.4636H128.067L127.537 39.9305H126.629L129.014 33.372H130.007L132.383 39.9305H131.474L130.944 38.4636ZM130.698 37.7633L129.506 34.432L128.313 37.7633H130.698Z" fill="white"/>
<path d="M123.054 34.0345V36.2395H125.458V36.9493H123.054V39.2207H125.742V39.9305H122.193V33.3247H125.742V34.0345H123.054Z" fill="white"/>
<path d="M119.908 39.9305L118.337 37.2333H117.296V39.9305H116.435V33.3341H118.564C119.063 33.3341 119.482 33.4193 119.823 33.5897C120.17 33.76 120.429 33.9903 120.599 34.2805C120.77 34.5708 120.855 34.902 120.855 35.2742C120.855 35.7285 120.722 36.1291 120.457 36.4762C120.199 36.8232 119.807 37.0535 119.284 37.167L120.94 39.9305H119.908ZM117.296 36.5424H118.564C119.031 36.5424 119.381 36.4288 119.615 36.2017C119.848 35.9683 119.965 35.6591 119.965 35.2742C119.965 34.8831 119.848 34.5802 119.615 34.3657C119.388 34.1512 119.038 34.0439 118.564 34.0439H117.296V36.5424Z" fill="white"/>
</svg>
